# xmcd
#
# Track frame offsets:
#	150
#	11050
#	23988
#	33797
#	45469
#	60633
#	74733
#	85906
#	96658
#	109239
#	118413
#	127871
#	137694
#	150230
#	160415
#	170291
#	184497
#	197603
#	205537
#	217913
#
# Disc length: 3058 seconds
#
# Revision: 0
# Processed by: cddbd v1.5.2PL0 Copyright (c) Steve Scherf et al.
# Submitted via: audiograbber 1.82.02
#
DISCID=170bf014
DTITLE=Jim Reeves  - The Very Best Of Jim Reeves
DYEAR=1981
DGENRE=Country
TTITLE0=He'll Have To Go
TTITLE1=Distant Drums
TTITLE2=When Two Worlds Collide
TTITLE3=I Missed Me
TTITLE4=The Blizzard
TTITLE5=This Is It
TTITLE6=Moonlight and Roses (Bring Mem'ries Of You)
TTITLE7=You're The Only Good Thing (That's Happened To Me)
TTITLE8=I Love You Because
TTITLE9=I Won't Forget You
TTITLE10=There's A Heartache Following Me
TTITLE11=It Hurts So Much To See You Go
TTITLE12=Not Until The Next Time
TTITLE13=Is It Really Over?
TTITLE14=Snowflake
TTITLE15=Guilty
TTITLE16=I'd Fight The World
TTITLE17=Trying To Forget
TTITLE18=Nobody's Fool
TTITLE19=Welcome To The World
EXTD=
EXTT0=
EXTT1=
EXTT2=
EXTT3=
EXTT4=
EXTT5=
EXTT6=
EXTT7=
EXTT8=
EXTT9=
EXTT10=
EXTT11=
EXTT12=
EXTT13=
EXTT14=
EXTT15=
EXTT16=
EXTT17=
EXTT18=
EXTT19=
PLAYORDER=
